<svg id="Layer_1" data-name="Layer 1" xmlns="http://www.w3.org/2000/svg" viewBox="0 0 1335.65 261.1"><defs><style>.cls-1{font-size:113.5px;font-family:Raleway-SemiBold, Raleway;font-weight:600;letter-spacing:0.1em;}.cls-2{letter-spacing:0.09em;}</style></defs><title>logo-wide-black</title><text class="cls-1" transform="translate(239.99 166.19)">THE BOO<tspan class="cls-2" x="577.48" y="0">K</tspan><tspan x="662.37" y="0" xml:space="preserve"> NOO</tspan><tspan class="cls-2" x="993.56" y="0">K</tspan></text><polygon points="177.76 207.02 158.5 207.02 158.5 201.15 171.9 201.15 171.9 59.94 30.69 59.94 30.69 127.21 24.83 127.21 24.83 54.08 177.76 54.08 177.76 207.02"/><path d="M99.32,156.27V206H91.07V140.86h6.42l40.35,50.72V141h8.25v65h-7Z"/><path d="M58.29,173.9a16.52,16.52,0,1,0,0-33H25.23V145c.35,0,.7-.06,1.07-.06h31a12.41,12.41,0,0,1,0,24.81h-31c-.37,0-.72,0-1.07-.06v8.35c.35,0,.7-.06,1.07-.06h31a12.44,12.44,0,0,1,12.4,12.4h0a12.44,12.44,0,0,1-12.4,12.41h-31c-.37,0-.72,0-1.07-.06v4.17H58.29a16.56,16.56,0,0,0,16.52-16.52h0A16.57,16.57,0,0,0,58.29,173.9Z"/><path d="M54.84,150.6H24.7v3.23H55.78a3,3,0,0,1,3,3v.49a3,3,0,0,1-3,3H24.7v3.23H54.84a6.52,6.52,0,1,0,0-13Z"/><path d="M55.37,183.49H25.23v3.23H55.78a3,3,0,0,1,3,3v.5a3,3,0,0,1-3,3H25.23v3.23H55.37A6.53,6.53,0,0,0,61.88,190h0A6.53,6.53,0,0,0,55.37,183.49Z"/></svg>