<svg id="Layer_1" data-name="Layer 1" xmlns="http://www.w3.org/2000/svg" viewBox="0 0 300 300"><defs><style>.cls-1{fill:#fff;}</style></defs><title>logo-icon-white</title><polygon class="cls-1" points="275.63 275.53 244.02 275.53 244.02 265.9 266.01 265.9 266.01 34.09 34.2 34.09 34.2 144.52 24.57 144.52 24.57 24.47 275.63 24.47 275.63 275.53"/><path class="cls-1" d="M146.86,192.23v81.59H133.31V166.94h10.54l66.24,83.25v-83.1h13.55V273.82H212.2Z"/><path class="cls-1" d="M79.51,221.17a27.12,27.12,0,1,0,0-54.23H25.23v6.85c.58,0,1.16-.09,1.75-.09H77.92a20.36,20.36,0,1,1,0,40.71H27a17,17,0,0,1-1.75-.1V228c.58-.05,1.16-.1,1.75-.1H77.92a20.42,20.42,0,0,1,20.36,20.36h0a20.42,20.42,0,0,1-20.36,20.36H27a17,17,0,0,1-1.75-.1v6.86H79.51a27.2,27.2,0,0,0,27.12-27.12h0A27.21,27.21,0,0,0,79.51,221.17Z"/><path class="cls-1" d="M73.84,182.91H24.37v5.31h51a5,5,0,0,1,5,5V194a5,5,0,0,1-5,5h-51v5.3H73.84a10.7,10.7,0,1,0,0-21.39Z"/><path class="cls-1" d="M74.71,236.91H25.23v5.31H75.38a5,5,0,0,1,5,5V248a5,5,0,0,1-5,5H25.23v5.3H74.71a10.72,10.72,0,0,0,10.7-10.69h0A10.73,10.73,0,0,0,74.71,236.91Z"/></svg>